<?xml version="1.0" encoding="UTF-8" standalone="no"?>
<!DOCTYPE svg PUBLIC "-//W3C//DTD SVG 1.1//EN" "http://www.w3.org/Graphics/SVG/1.1/DTD/svg11.dtd">
<svg width="100%" height="100%" viewBox="0 0 2134 2134" version="1.1" xmlns="http://www.w3.org/2000/svg" xmlns:xlink="http://www.w3.org/1999/xlink" xml:space="preserve" xmlns:serif="http://www.serif.com/" style="fill-rule:evenodd;clip-rule:evenodd;stroke-linejoin:round;stroke-miterlimit:2;">
    <g transform="matrix(4.16667,0,0,4.16667,0,0)">
        <g id="Github">
            <path d="M512,256C512,373.67 432.59,472.81 324.44,502.75C321.87,500.85 319.73,497.25 319.73,490.6C319.73,474.13 319.06,409.22 319.06,409.22C319.06,409.22 316.42,386.87 303.63,376.65C306.13,376.65 400.53,374.92 416.57,286.06C416.57,286.06 432.83,227.64 393.51,183.95C393.51,183.95 406.03,153.64 390.87,117.4C390.87,117.4 361.87,115.4 321.7,143.76C321.7,143.76 277.93,135.19 256,135.19C234.07,135.19 190.3,143.76 190.3,143.76C150.11,115.43 121.13,117.4 121.13,117.4C105.97,153.64 118.49,183.95 118.49,183.95C79.17,227.6 95.43,286 95.43,286C111.43,374.86 205.87,376.56 208.37,376.59C195.58,386.81 192.94,409.16 192.94,409.16C192.94,409.16 157.37,433.55 124.42,398.41C124.42,398.41 106.85,354.48 67.32,365.9C67.32,365.9 63.81,374.26 81.38,381.28C81.38,381.28 100.7,397.28 105.53,417.4C105.53,417.4 126.72,466.5 192.53,450.24C192.39,466.61 192.26,483.29 192.26,490.54C192.26,497.19 190.12,500.79 187.55,502.69C79.41,472.81 0,373.67 0,256C0,114.62 114.62,0 256,0C397.38,0 512,114.62 512,256Z" style="fill-rule:nonzero;"/>
            <path d="M416.57,286C400.57,374.86 306.13,376.56 303.63,376.59C316.42,386.81 319.06,409.16 319.06,409.16C319.06,409.16 319.73,474.07 319.73,490.54C319.73,497.19 321.87,500.79 324.44,502.69C279.65,515.022 232.35,515.022 187.56,502.69C190.13,500.79 192.27,497.19 192.27,490.54C192.27,483.29 192.4,466.61 192.54,450.24C126.72,466.5 105.54,417.4 105.54,417.4C100.71,397.31 81.39,381.28 81.39,381.28C63.81,374.32 67.32,366 67.32,366C106.85,354.58 124.42,398.51 124.42,398.51C157.42,433.65 192.94,409.26 192.94,409.26C192.94,409.26 195.58,386.91 208.37,376.69C205.87,376.69 111.47,374.96 95.43,286.1C95.43,286.1 79.17,227.68 118.49,183.99C118.49,183.99 105.97,153.68 121.13,117.44C121.13,117.44 150.13,115.44 190.3,143.8C190.3,143.8 234.07,135.23 256,135.23C277.93,135.23 321.7,143.8 321.7,143.8C361.89,115.47 390.87,117.44 390.87,117.44C406.03,153.68 393.51,183.99 393.51,183.99C432.83,227.6 416.57,286 416.57,286Z" style="fill:white;fill-rule:nonzero;"/>
        </g>
    </g>
</svg>
